<?xml version="1.0" encoding="UTF-8" standalone="no"?>
<!-- Created with Inkscape (http://www.inkscape.org/) -->

<svg
   width="297.54773mm"
   height="297.54779mm"
   viewBox="0 0 297.54773 297.54779"
   version="1.1"
   id="svg5"
   xml:space="preserve"
   inkscape:version="1.3 (0e150ed6c4, 2023-07-21)"
   sodipodi:docname="appIcon.svg"
   inkscape:export-filename="appIcon.png"
   inkscape:export-xdpi="96"
   inkscape:export-ydpi="96"
   xmlns:inkscape="http://www.inkscape.org/namespaces/inkscape"
   xmlns:sodipodi="http://sodipodi.sourceforge.net/DTD/sodipodi-0.dtd"
   xmlns="http://www.w3.org/2000/svg"
   xmlns:svg="http://www.w3.org/2000/svg"><sodipodi:namedview
     id="namedview7"
     pagecolor="#505050"
     bordercolor="#eeeeee"
     borderopacity="1"
     inkscape:showpageshadow="0"
     inkscape:pageopacity="0"
     inkscape:pagecheckerboard="0"
     inkscape:deskcolor="#505050"
     inkscape:document-units="mm"
     showgrid="false"
     showguides="true"
     inkscape:zoom="0.52661995"
     inkscape:cx="186.09246"
     inkscape:cy="536.43999"
     inkscape:window-width="1920"
     inkscape:window-height="1021"
     inkscape:window-x="0"
     inkscape:window-y="0"
     inkscape:window-maximized="1"
     inkscape:current-layer="layer2" /><defs
     id="defs2" /><g
     inkscape:label="Layer 1"
     inkscape:groupmode="layer"
     id="layer1"
     transform="translate(32.558114,2.2795562)"><circle
       style="fill:#a4fba4;fill-opacity:1;stroke-width:0.308303"
       id="path20870"
       cx="116.21577"
       cy="146.49432"
       r="148.77388" /></g><g
     inkscape:groupmode="layer"
     id="layer2"
     inkscape:label="Layer 2"
     transform="translate(32.558114,2.2795562)"><g
       style="fill:#653b1b;fill-opacity:1"
       id="g21556"
       transform="matrix(0.41341146,0,0,0.41341146,12.269909,34.402749)"><g
         id="g21492"
         style="fill:#653b1b;fill-opacity:1">&#10;	<g
   id="g21490"
   style="fill:#653b1b;fill-opacity:1">&#10;		<path
   d="m 346.821,327.81 c -1.598,-3.888 -6.049,-5.742 -9.935,-4.145 -2.642,1.086 -5.379,2.032 -8.133,2.813 -4.045,1.146 -6.395,5.354 -5.249,9.4 0.95,3.352 4,5.539 7.32,5.539 0.687,0 1.385,-0.093 2.08,-0.29 3.309,-0.938 6.597,-2.075 9.771,-3.38 3.888,-1.6 5.744,-6.049 4.146,-9.937 z"
   id="path21488"
   style="fill:#653b1b;fill-opacity:1" />&#10;	</g>&#10;</g><g
         id="g21498"
         style="fill:#653b1b;fill-opacity:1">&#10;	<g
   id="g21496"
   style="fill:#653b1b;fill-opacity:1">&#10;		<path
   d="m 440.961,445.195 c -5.939,-28.062 -30.872,-48.612 -60.056,-48.612 -33.279,0 -60.461,26.613 -61.385,59.674 -12.388,7.415 -20.152,20.865 -20.152,35.541 0,5.311 1.002,10.5 2.979,15.423 1.159,2.885 3.955,4.776 7.065,4.776 h 148.612 c 2.629,0 5.072,-1.357 6.462,-3.588 4.204,-6.751 6.426,-14.533 6.426,-22.503 0.002,-18.928 -12.306,-35.259 -29.951,-40.711 z m 12.482,51.575 H 315.069 c -0.316,-1.63 -0.474,-3.292 -0.474,-4.973 0,-10.382 6.146,-19.794 15.658,-23.981 2.896,-1.274 4.701,-4.206 4.535,-7.365 -0.044,-0.835 -0.065,-1.663 -0.065,-2.459 0,-25.465 20.717,-46.183 46.182,-46.183 23.302,0 43.002,17.421 45.824,40.521 0.406,3.333 2.95,6.006 6.26,6.578 13.153,2.274 22.699,13.627 22.699,26.995 0,3.761 -0.768,7.455 -2.245,10.867 z"
   id="path21494"
   style="fill:#653b1b;fill-opacity:1" />&#10;	</g>&#10;</g><g
         id="g21504"
         style="fill:#653b1b;fill-opacity:1">&#10;	<g
   id="g21502"
   style="fill:#653b1b;fill-opacity:1">&#10;		<path
   d="m 158.915,451.535 c -9.336,-20.555 -29.878,-33.994 -52.823,-33.994 -4.205,0 -7.613,3.409 -7.613,7.613 0,4.204 3.407,7.613 7.613,7.613 18.401,0 34.705,11.717 40.573,29.157 1.171,3.487 4.669,5.633 8.311,5.106 1.233,-0.18 2.474,-0.27 3.686,-0.27 13.988,0 25.369,11.381 25.369,25.369 0,1.462 -0.124,2.909 -0.37,4.333 H 68.72 c -3.567,-6.361 -5.436,-13.507 -5.436,-20.885 0,-10.46 3.812,-20.53 10.734,-28.353 2.785,-3.149 2.492,-7.96 -0.657,-10.746 -3.149,-2.785 -7.96,-2.491 -10.746,0.657 -9.387,10.609 -14.557,24.262 -14.557,38.443 0,11.776 3.515,23.119 10.165,32.806 1.42,2.068 3.768,3.304 6.277,3.304 h 124.905 c 3.14,0 5.956,-1.927 7.095,-4.853 1.83,-4.705 2.758,-9.653 2.758,-14.706 -0.002,-22.3 -18.075,-40.457 -40.343,-40.594 z"
   id="path21500"
   style="fill:#653b1b;fill-opacity:1" />&#10;	</g>&#10;</g><g
         id="g21510"
         style="fill:#653b1b;fill-opacity:1">&#10;	<g
   id="g21508"
   style="fill:#653b1b;fill-opacity:1">&#10;		<path
   d="m 307.892,329.36 c -16.878,0 -33.146,-5.563 -46.432,-15.746 11.444,-13.516 18.365,-30.978 18.365,-50.033 0,-3.441 -0.232,-6.869 -0.681,-10.26 l -8.427,-9.499 -7.219,8.033 c 0.731,3.846 1.101,7.775 1.101,11.727 0,34.367 -27.959,62.327 -62.327,62.327 -17.688,0 -34.612,-7.568 -46.431,-20.764 -1.973,-2.203 -5.043,-3.063 -7.877,-2.207 -5.066,1.534 -10.326,2.311 -15.632,2.311 -29.706,0 -53.872,-24.168 -53.872,-53.873 0,-1.242 0.056,-2.557 0.176,-4.138 0.23,-3.035 -1.37,-5.915 -4.068,-7.323 -11.93,-6.229 -19.342,-18.443 -19.342,-31.877 0,-19.82 16.125,-35.945 35.945,-35.945 4.674,0 9.201,0.89 13.478,2.626 l 6.2,-6.516 -10.311,-10.466 c -3.068,-0.568 -6.193,-0.87 -9.367,-0.87 -28.215,0 -51.17,22.955 -51.17,51.17 0,17.461 8.788,33.471 23.236,42.87 -0.001,0.157 -0.002,0.314 -0.002,0.469 0,23.669 11.967,44.59 30.163,57.047 -0.205,2.127 -0.311,4.274 -0.311,6.413 0,36.303 29.535,65.838 65.838,65.838 6.069,0 12.078,-0.834 17.908,-2.484 7.598,3.718 15.996,5.669 24.489,5.669 6.728,0 13.312,-1.203 19.502,-3.515 v 103.288 c 0,15.643 12.726,28.369 28.368,28.369 15.643,0 28.368,-12.727 28.368,-28.369 V 339.408 c 9.66,3.387 19.897,5.178 30.332,5.178 4.205,0 7.613,-3.409 7.613,-7.613 0,-4.204 -3.409,-7.613 -7.613,-7.613 z m -87.07,34.261 c -5.953,3.277 -12.619,5.011 -19.502,5.011 -6.997,0 -13.902,-1.821 -19.972,-5.268 -1.888,-1.072 -4.145,-1.287 -6.198,-0.592 -5.244,1.774 -10.704,2.674 -16.226,2.674 -27.459,0 -49.864,-21.984 -50.578,-49.273 7.476,2.776 15.557,4.3 23.987,4.3 5.207,0 10.38,-0.585 15.434,-1.741 14.469,14.29 34.077,22.401 54.506,22.401 6.394,0 12.603,-0.793 18.55,-2.258 v 24.746 z m 41.513,120.01 h -10e-4 c 0,7.247 -5.896,13.144 -13.143,13.144 -7.246,0 -13.143,-5.896 -13.143,-13.144 V 333.38 c 5.135,-2.495 9.945,-5.553 14.374,-9.071 3.769,3.039 7.756,5.749 11.913,8.134 z"
   id="path21506"
   style="fill:#653b1b;fill-opacity:1" />&#10;	</g>&#10;</g><g
         id="g21516"
         style="fill:#653b1b;fill-opacity:1">&#10;	<g
   id="g21514"
   style="fill:#653b1b;fill-opacity:1">&#10;		<path
   d="m 436.672,175.697 c 1.474,-6 2.218,-12.159 2.218,-18.396 0,-42.52 -34.593,-77.113 -77.113,-77.113 -9.975,0 -19.661,1.895 -28.824,5.593 l -0.004,0.048 c -1.804,-1.267 -3.655,-2.481 -5.562,-3.627 0.123,-1.758 0.185,-3.499 0.185,-5.211 C 327.572,34.538 293.034,0 250.581,0 211.986,0 179.765,28.44 174.383,65.923 132.648,69.4 99.748,104.478 99.748,147.096 c 0,44.916 36.542,81.456 81.456,81.456 10.485,0 20.624,-1.947 30.218,-5.795 17.489,19.501 42.143,30.571 68.524,30.571 50.808,0 92.141,-41.334 92.141,-92.141 0,-24.255 -9.449,-46.985 -25.728,-63.881 l 0.089,0.017 c 4.974,-1.269 10.103,-1.908 15.33,-1.908 34.125,0 61.887,27.762 61.887,61.887 0,7.151 -1.217,14.175 -3.618,20.874 -0.734,2.048 -0.556,4.314 0.488,6.222 1.044,1.909 2.855,3.28 4.977,3.766 18.406,4.219 31.26,20.368 31.26,39.272 0,22.223 -18.081,40.304 -40.303,40.304 -7.743,0 -15.271,-2.212 -21.772,-6.395 -2.142,-1.379 -4.833,-1.594 -7.165,-0.576 -2.335,1.019 -4.004,3.138 -4.451,5.646 -3.311,18.641 -13.425,35.331 -28.478,46.992 -3.323,2.575 -3.93,7.357 -1.355,10.68 1.5,1.937 3.749,2.951 6.023,2.951 1.628,0 3.27,-0.521 4.658,-1.596 15.341,-11.885 26.406,-28.138 31.818,-46.487 6.55,2.639 13.571,4.009 20.722,4.009 30.619,0 55.529,-24.911 55.529,-55.53 -10e-4,-23.298 -14.177,-43.561 -35.326,-51.737 z m -79.811,-14.51 c -10e-4,42.411 -34.505,76.916 -76.918,76.916 -23.682,0 -45.699,-10.692 -60.407,-29.336 -1.483,-1.88 -3.707,-2.898 -5.981,-2.898 -1.129,0 -2.27,0.252 -3.337,0.772 -9.084,4.437 -18.846,6.686 -29.017,6.686 -36.52,0 -66.23,-29.711 -66.23,-66.23 0,-36.484 29.654,-66.173 66.126,-66.23 0.082,0.002 0.145,0.003 0.209,0.003 4.039,0 7.385,-3.162 7.6,-7.21 1.74,-32.767 28.829,-58.434 61.675,-58.434 34.058,0 61.765,27.708 61.765,61.765 0,2.708 -0.196,5.525 -0.582,8.37 -0.43,3.168 1.164,6.267 3.993,7.758 25.354,13.369 41.104,39.451 41.104,68.068 z"
   id="path21512"
   style="fill:#653b1b;fill-opacity:1" />&#10;	</g>&#10;</g><g
         id="g21522"
         style="fill:#653b1b;fill-opacity:1">&#10;	<g
   id="g21520"
   style="fill:#653b1b;fill-opacity:1">&#10;		<path
   d="m 361.852,254.922 c -4.138,-0.741 -8.091,2.024 -8.827,6.164 -3.053,17.19 -15.875,31.357 -32.667,36.093 -4.047,1.141 -6.402,5.347 -5.261,9.393 0.947,3.356 4.001,5.548 7.323,5.548 0.683,0 1.379,-0.093 2.071,-0.287 22.373,-6.309 39.457,-25.184 43.525,-48.085 0.735,-4.139 -2.025,-8.092 -6.164,-8.826 z"
   id="path21518"
   style="fill:#653b1b;fill-opacity:1" />&#10;	</g>&#10;</g><g
         id="g21528"
         style="fill:#653b1b;fill-opacity:1">&#10;	<g
   id="g21526"
   style="fill:#653b1b;fill-opacity:1">&#10;		<path
   d="m 334.021,153.574 c -4.205,0 -7.613,3.409 -7.613,7.613 0,25.621 -20.844,46.465 -46.465,46.465 -4.205,0 -7.613,3.409 -7.613,7.613 0,4.204 3.407,7.613 7.613,7.613 34.016,0 61.69,-27.674 61.69,-61.69 0.001,-4.206 -3.407,-7.614 -7.612,-7.614 z"
   id="path21524"
   style="fill:#653b1b;fill-opacity:1" />&#10;	</g>&#10;</g></g></g></svg>
