<?xml version="1.0" encoding="utf-8"?>
<!-- Uploaded to: SVG Repo, www.svgrepo.com, Generator: SVG Repo Mixer Tools -->
<svg width="800px" height="800px" viewBox="0 0 1024 1024" class="icon"  version="1.1" xmlns="http://www.w3.org/2000/svg"><path d="M618.666667 490.666667H405.333333L149.333333 192h725.333334z" fill="#F57C00" /><path d="M618.666667 810.666667l-213.333334 128V490.666667h213.333334zM885.333333 192h-746.666666C121.6 192 106.666667 177.066667 106.666667 160S121.6 128 138.666667 128h746.666666c17.066667 0 32 14.933333 32 32S902.4 192 885.333333 192z" fill="#FF9800" /><path d="M810.666667 810.666667m-213.333334 0a213.333333 213.333333 0 1 0 426.666667 0 213.333333 213.333333 0 1 0-426.666667 0Z" fill="#F44336" /><path d="M682.666667 768h256v85.333333H682.666667z" fill="#FFFFFF" /></svg>