<?xml version="1.0" encoding="UTF-8" standalone="no"?>
<!-- Uploaded to: SVG Repo, www.svgrepo.com, Generator: SVG Repo Mixer Tools -->

<svg
   width="800px"
   height="800px"
   viewBox="0 0 1024 1024"
   class="icon"
   version="1.1"
   id="svg824"
   sodipodi:docname="manager-svgrepo-com.svg"
   inkscape:version="1.2.2 (b0a8486541, 2022-12-01)"
   xmlns:inkscape="http://www.inkscape.org/namespaces/inkscape"
   xmlns:sodipodi="http://sodipodi.sourceforge.net/DTD/sodipodi-0.dtd"
   xmlns="http://www.w3.org/2000/svg"
   xmlns:svg="http://www.w3.org/2000/svg">
  <defs
     id="defs828" />
  <sodipodi:namedview
     id="namedview826"
     pagecolor="#ffffff"
     bordercolor="#000000"
     borderopacity="0.25"
     inkscape:showpageshadow="2"
     inkscape:pageopacity="0.0"
     inkscape:pagecheckerboard="0"
     inkscape:deskcolor="#d1d1d1"
     showgrid="false"
     inkscape:zoom="1.07"
     inkscape:cx="353.73832"
     inkscape:cy="400.46729"
     inkscape:window-width="1920"
     inkscape:window-height="1056"
     inkscape:window-x="0"
     inkscape:window-y="0"
     inkscape:window-maximized="1"
     inkscape:current-layer="svg824" />
  <path
     d="M512 789.333333l-106.666667-128v-128h213.333334v128z"
     fill="#FF9800"
     id="path806" />
  <path
     d="M704 405.333333m-42.666667 0a42.666667 42.666667 0 1 0 85.333334 0 42.666667 42.666667 0 1 0-85.333334 0Z"
     fill="#FFA726"
     id="path808" />
  <path
     d="M320 405.333333m-42.666667 0a42.666667 42.666667 0 1 0 85.333334 0 42.666667 42.666667 0 1 0-85.333334 0Z"
     fill="#FFA726"
     id="path810" />
  <path
     d="M704 277.333333c0-162.133333-384-106.666667-384 0v149.333334c0 106.666667 85.333333 192 192 192s192-85.333333 192-192v-149.333334z"
     fill="#FFB74D"
     id="path812" />
  <path
     d="M512 85.333333c-130.133333 0-213.333333 104.533333-213.333333 234.666667v49.066667l42.666666 36.266666v-106.666666l256-85.333334 85.333334 85.333334v106.666666l42.666666-36.266666V320c0-85.333333-21.333333-170.666667-128-192l-21.333333-42.666667h-64z"
     fill="#FF5722"
     id="path814" />
  <path
     d="M618.666667 661.333333l-106.666667 21.333334-106.666667-21.333334S170.666667 704 170.666667 938.666667h682.666666c0-234.666667-234.666667-277.333333-234.666666-277.333334z"
     fill="#CFD8DC"
     id="path820" />
</svg>
