<?xml version="1.0" encoding="UTF-8" standalone="no"?>
<!-- Uploaded to: SVG Repo, www.svgrepo.com, Generator: SVG Repo Mixer Tools -->

<svg
   width="800px"
   height="800px"
   viewBox="0 0 1024 1024"
   class="icon"
   version="1.1"
   id="svg1668"
   sodipodi:docname="promotedRelation.svg"
   xml:space="preserve"
   inkscape:version="1.2.2 (b0a8486541, 2022-12-01)"
   xmlns:inkscape="http://www.inkscape.org/namespaces/inkscape"
   xmlns:sodipodi="http://sodipodi.sourceforge.net/DTD/sodipodi-0.dtd"
   xmlns="http://www.w3.org/2000/svg"
   xmlns:svg="http://www.w3.org/2000/svg"><defs
     id="defs1672" /><sodipodi:namedview
     id="namedview1670"
     pagecolor="#ffffff"
     bordercolor="#000000"
     borderopacity="0.25"
     inkscape:showpageshadow="2"
     inkscape:pageopacity="0.0"
     inkscape:pagecheckerboard="0"
     inkscape:deskcolor="#d1d1d1"
     showgrid="false"
     inkscape:zoom="1.07"
     inkscape:cx="289.25234"
     inkscape:cy="325.70093"
     inkscape:window-width="1920"
     inkscape:window-height="1056"
     inkscape:window-x="0"
     inkscape:window-y="0"
     inkscape:window-maximized="1"
     inkscape:current-layer="svg1668" /><path
     d="M256 448m-106.666667 0a106.666667 106.666667 0 1 0 213.333334 0 106.666667 106.666667 0 1 0-213.333334 0Z"
     fill="#FFA726"
     id="path1654" /><path
     d="M42.666667 740.266667s59.733333-134.4 213.333333-134.4 213.333333 134.4 213.333333 134.4V810.666667H42.666667v-70.4zM981.333333 740.266667s-59.733333-134.4-213.333333-134.4-213.333333 134.4-213.333333 134.4V810.666667h426.666666v-70.4z"
     fill="#455A64"
     id="path1656" /><path
     d="M512 362.666667m-128 0a128 128 0 1 0 256 0 128 128 0 1 0-256 0Z"
     fill="#FFB74D"
     id="path1658" /><path
     d="M768 727.466667s-70.4-160-256-160-256 160-256 160V810.666667h512v-83.2z"
     fill="#607D8B"
     id="path1660" /><path
     d="M768 448m-106.666667 0a106.666667 106.666667 0 1 0 213.333334 0 106.666667 106.666667 0 1 0-213.333334 0Z"
     fill="#FFA726"
     id="path1662" /><path
     d="M256 448m-106.666667 0a106.666667 106.666667 0 1 0 213.333334 0 106.666667 106.666667 0 1 0-213.333334 0Z"
     fill="#FFA726"
     id="path1664" /><path
     d="M768 448m-106.666667 0a106.666667 106.666667 0 1 0 213.333334 0 106.666667 106.666667 0 1 0-213.333334 0Z"
     fill="#FFA726"
     id="path1666" /><g
     id="g1803"
     transform="matrix(0.51188297,0,0,0.51188297,251.42082,299.76897)"><path
       d="m 512,512 m -448,0 a 448,448 0 1 0 896,0 448,448 0 1 0 -896,0 z"
       fill="#f44336"
       id="path1791" /><path
       d="M 512,234.66667 595.2,403.2 l 185.6,27.73333 -134.4,130.13334 32,185.6 L 512,659.2 l -166.4,87.46667 32,-185.6 L 243.2,430.93333 428.8,403.2 Z"
       fill="#ffca28"
       id="path1793" /></g></svg>
