<?xml version="1.0" encoding="utf-8"?>
<!-- Uploaded to: SVG Repo, www.svgrepo.com, Generator: SVG Repo Mixer Tools -->
<svg width="800px" height="800px" viewBox="0 0 1024 1024" class="icon"  version="1.1" xmlns="http://www.w3.org/2000/svg"><path d="M832 917.333333H192c-46.933333 0-85.333333-38.4-85.333333-85.333333V192c0-46.933333 38.4-85.333333 85.333333-85.333333h640c46.933333 0 85.333333 38.4 85.333333 85.333333v640c0 46.933333-38.4 85.333333-85.333333 85.333333z" fill="#3F51B5" /><path d="M716.8 541.866667c2.133333-8.533333 2.133333-19.2 2.133333-29.866667s0-19.2-2.133333-29.866667l59.733333-42.666666c6.4-4.266667 8.533333-12.8 4.266667-19.2l-57.6-98.133334c-4.266667-6.4-10.666667-8.533333-17.066667-6.4L640 347.733333c-14.933333-12.8-32-21.333333-51.2-29.866666l-6.4-72.533334c0-6.4-6.4-12.8-12.8-12.8h-113.066667c-6.4 0-12.8 6.4-12.8 12.8l-8.533333 74.666667c-19.2 6.4-34.133333 17.066667-51.2 29.866667L317.866667 320c-6.4-2.133333-14.933333 0-17.066667 6.4l-57.6 98.133333c-4.266667 6.4-2.133333 14.933333 4.266667 19.2l59.733333 42.666667c-2.133333 8.533333-2.133333 19.2-2.133333 29.866667s0 19.2 2.133333 29.866666l-59.733333 42.666667c-6.4 4.266667-8.533333 12.8-4.266667 19.2l57.6 98.133333c4.266667 6.4 10.666667 8.533333 17.066667 6.4L384 682.666667c14.933333 12.8 32 21.333333 51.2 29.866666l6.4 72.533334c0 6.4 6.4 12.8 12.8 12.8h113.066667c6.4 0 12.8-6.4 12.8-12.8l6.4-72.533334c19.2-6.4 34.133333-17.066667 51.2-29.866666l66.133333 29.866666c6.4 2.133333 14.933333 0 17.066667-6.4l57.6-98.133333c4.266667-6.4 2.133333-14.933333-4.266667-19.2l-57.6-46.933333zM512 618.666667c-59.733333 0-106.666667-46.933333-106.666667-106.666667s46.933333-106.666667 106.666667-106.666667 106.666667 46.933333 106.666667 106.666667-46.933333 106.666667-106.666667 106.666667z" fill="#B3E5FC" /></svg>